# xmcd CD database file
#
# Track frame offsets:
#	150
#	10695
#	21975
#	33582
#	45532
#	60814
#	72665
#	87212
#	99770
#	112335
#	125425
#	136985
#	150757
#	162645
#	178512
#	191287
#	205402
#	216987
#	228090
#	237805
#	247575
#	260227
#
# Disc length: 3625 seconds
#
# Revision: 0
# Processed by: cddbd v1.4PL0 Copyright (c) Steve Scherf et al.
# Submitted via: CDex 1.50beta10
#
DISCID=220e2716
DTITLE=Cab Calloway - 1949-1955
DYEAR=2003
DGENRE=Jazz
TTITLE0=Baby It's Cold Outside 
TTITLE1=Huckle-Buck, The 
TTITLE2=Ol' Joe Louis 
TTITLE3=Your Voice 
TTITLE4=Rooming House Boogie 
TTITLE5=I Beeped When I Shoulda Bopped 
TTITLE6=Duck Trot, The 
TTITLE7=Pero Que Jelengue 
TTITLE8=Keeper Of The Blues, The 
TTITLE9=La Muruca 
TTITLE10=Que Pasa Chica 
TTITLE11=Shot Gun Boogie 
TTITLE12=Frosty Morning 
TTITLE13=One For My Baby 
TTITLE14=I'll Get By 
TTITLE15=Minnie The Moocher 
TTITLE16=Gambler's Guitar (Gamblers' Blues) 
TTITLE17=Hey Joe 
TTITLE18=Jilted 
TTITLE19=Such A Night 
TTITLE20=Unchained Melody 
TTITLE21=Learning The Blues 
EXTD=YEAR: 2003
EXTT0=
EXTT1=
EXTT2=
EXTT3=
EXTT4=
EXTT5=
EXTT6=
EXTT7=
EXTT8=
EXTT9=
EXTT10=
EXTT11=
EXTT12=
EXTT13=
EXTT14=
EXTT15=
EXTT16=
EXTT17=
EXTT18=
EXTT19=
EXTT20=
EXTT21=
PLAYORDER=
